<svg xmlns="http://www.w3.org/2000/svg" xmlns:xlink="http://www.w3.org/1999/xlink" id="visual" version="1.1" viewBox="0 151.51 960 99.49"><path d="M0 171L22.8 170.5C45.7 170 91.3 169 137 170C182.7 171 228.3 174 274 170.8C319.7 167.7 365.3 158.3 411.2 154.2C457 150 503 151 548.8 155.2C594.7 159.3 640.3 166.7 686 167.8C731.7 169 777.3 164 823 165.2C868.7 166.3 914.3 173.7 937.2 177.3L960 181L960 251L937.2 251C914.3 251 868.7 251 823 251C777.3 251 731.7 251 686 251C640.3 251 594.7 251 548.8 251C503 251 457 251 411.2 251C365.3 251 319.7 251 274 251C228.3 251 182.7 251 137 251C91.3 251 45.7 251 22.8 251L0 251Z" fill="#ffbbd6"/><path d="M0 171L22.8 173C45.7 175 91.3 179 137 182.8C182.7 186.7 228.3 190.3 274 187.8C319.7 185.3 365.3 176.7 411.2 175C457 173.3 503 178.7 548.8 183.3C594.7 188 640.3 192 686 191C731.7 190 777.3 184 823 182.8C868.7 181.7 914.3 185.3 937.2 187.2L960 189L960 251L937.2 251C914.3 251 868.7 251 823 251C777.3 251 731.7 251 686 251C640.3 251 594.7 251 548.8 251C503 251 457 251 411.2 251C365.3 251 319.7 251 274 251C228.3 251 182.7 251 137 251C91.3 251 45.7 251 22.8 251L0 251Z" fill="#fda5c2"/><path d="M0 211L22.8 210.8C45.7 210.7 91.3 210.3 137 209.7C182.7 209 228.3 208 274 208.3C319.7 208.7 365.3 210.3 411.2 207.2C457 204 503 196 548.8 195.2C594.7 194.3 640.3 200.7 686 200.3C731.7 200 777.3 193 823 193.8C868.7 194.7 914.3 203.3 937.2 207.7L960 212L960 251L937.2 251C914.3 251 868.7 251 823 251C777.3 251 731.7 251 686 251C640.3 251 594.7 251 548.8 251C503 251 457 251 411.2 251C365.3 251 319.7 251 274 251C228.3 251 182.7 251 137 251C91.3 251 45.7 251 22.8 251L0 251Z" fill="#fa8fac"/><path d="M0 207L22.8 207.5C45.7 208 91.3 209 137 210.7C182.7 212.3 228.3 214.7 274 214.2C319.7 213.7 365.3 210.3 411.2 208.7C457 207 503 207 548.8 209.8C594.7 212.7 640.3 218.3 686 218.5C731.7 218.7 777.3 213.3 823 210.2C868.7 207 914.3 206 937.2 205.5L960 205L960 251L937.2 251C914.3 251 868.7 251 823 251C777.3 251 731.7 251 686 251C640.3 251 594.7 251 548.8 251C503 251 457 251 411.2 251C365.3 251 319.7 251 274 251C228.3 251 182.7 251 137 251C91.3 251 45.7 251 22.8 251L0 251Z" fill="#f67894"/><path d="M0 235L22.8 232.2C45.7 229.3 91.3 223.7 137 223.5C182.7 223.3 228.3 228.7 274 231.3C319.7 234 365.3 234 411.2 233.3C457 232.7 503 231.3 548.8 232C594.7 232.7 640.3 235.3 686 234.2C731.7 233 777.3 228 823 226.7C868.7 225.3 914.3 227.7 937.2 228.8L960 230L960 251L937.2 251C914.3 251 868.7 251 823 251C777.3 251 731.7 251 686 251C640.3 251 594.7 251 548.8 251C503 251 457 251 411.2 251C365.3 251 319.7 251 274 251C228.3 251 182.7 251 137 251C91.3 251 45.7 251 22.8 251L0 251Z" fill="#f0617b"/></svg>